<svg width="610" height="679" viewBox="0 0 610 679" fill="none" xmlns="http://www.w3.org/2000/svg">
<path d="M0 352C0 157.596 157.596 0 352 0H610V245C610 439.404 452.404 597 258 597H0V352Z" fill="#F3F3F3"/>
<path d="M0 352C0 157.596 157.596 0 352 0H610V245C610 439.404 452.404 597 258 597H0V352Z" fill="url(#paint0_linear)"/>
<path d="M0 498C0 303.596 157.596 146 352 146H496V245C496 439.404 338.404 597 144 597H0V498Z" fill="#F3F3F3"/>
<path d="M0 498C0 303.596 157.596 146 352 146H496V245C496 439.404 338.404 597 144 597H0V498Z" fill="url(#paint1_linear)"/>
<g clip-path="url(#clip0)" filter="url(#filter0_d)">
<path d="M190.976 495.551L252.443 561.652C255.901 564.347 258.698 567.792 260.622 571.726C262.546 575.659 263.546 579.979 263.546 584.355V653.884C263.546 658.114 261.861 662.171 258.862 665.163C255.863 668.154 251.795 669.834 247.553 669.834H167.6" stroke="#D8BAA3" stroke-width="6" stroke-miterlimit="10" stroke-linecap="round"/>
<path d="M263.383 485.059C263.383 487.842 262.274 490.51 260.302 492.478C258.329 494.445 255.653 495.551 252.864 495.551H100.978C92.8074 495.549 84.9715 492.312 79.1939 486.55C73.4162 480.787 70.1699 472.972 70.1688 464.823V344.6C70.1683 341.845 70.7123 339.117 71.7696 336.572C72.8269 334.028 74.3769 331.716 76.3309 329.769C78.2848 327.822 80.6044 326.278 83.157 325.226C85.7096 324.174 88.4452 323.634 91.2072 323.637H169.193C171.078 323.636 172.944 324.006 174.685 324.725C176.426 325.444 178.008 326.498 179.341 327.827C180.673 329.156 181.73 330.734 182.451 332.471C183.172 334.207 183.543 336.068 183.542 337.948V443.845C183.542 451.993 186.788 459.808 192.565 465.57C198.342 471.331 206.178 474.568 214.348 474.568H252.864C255.653 474.568 258.329 475.674 260.302 477.641C262.274 479.609 263.383 482.277 263.383 485.059Z" fill="white" stroke="#D8BAA3" stroke-width="6" stroke-miterlimit="10" stroke-linecap="round"/>
<path d="M262.966 487.989C262.33 490.171 261.001 492.087 259.179 493.45C257.358 494.814 255.141 495.551 252.864 495.551H100.978C92.8074 495.55 84.9715 492.312 79.1939 486.55C73.4162 480.787 70.1699 472.973 70.1688 464.823V344.6C70.1697 340.728 71.2445 336.933 73.2743 333.633C75.3042 330.333 78.2098 327.657 81.6698 325.902C79.4964 329.278 78.344 333.206 78.3504 337.217V462.146C78.3504 469.051 81.1005 475.672 85.9958 480.555C90.8911 485.437 97.5306 488.18 104.454 488.18H261.072C261.708 488.176 262.342 488.112 262.966 487.989Z" fill="#F0E1D4" stroke="#D8BAA3" stroke-width="6" stroke-miterlimit="10" stroke-linecap="round"/>
<path d="M183.932 402.794H212.762C226.168 402.799 239.022 408.114 248.5 417.569C257.977 427.025 263.301 439.847 263.301 453.217V488.187" stroke="#D8BAA3" stroke-width="6" stroke-miterlimit="10" stroke-linecap="round"/>
<path d="M124.354 495.551L185.821 561.652C189.279 564.347 192.077 567.792 194 571.726C195.924 575.659 196.925 579.979 196.925 584.355V653.884C196.925 658.114 195.24 662.171 192.241 665.163C189.241 668.154 185.173 669.834 180.932 669.834H100.978" stroke="#D8BAA3" stroke-width="6" stroke-miterlimit="10" stroke-linecap="round"/>
<path d="M192.343 243.746C192.343 243.746 221.127 239.471 238.421 277.185C253.569 310.212 264.863 341.013 264.863 341.013C264.863 341.013 288.208 354.034 327.472 367.971V386.661C327.472 386.661 267.586 390.131 247.604 386.661C232.912 384.112 192.37 329.877 189.554 293.089C186.737 256.3 192.343 243.746 192.343 243.746Z" fill="#374486"/>
<path d="M319.594 386.479C317.377 386.032 318.994 379.158 320.295 374.919C321.016 372.588 322.738 371.391 325.033 370.384C329.599 368.372 337.5 367.198 341.953 368.17C348.491 369.596 352.69 372.498 356.758 377.243C357.927 378.599 363.673 385.122 363.673 386.863L319.594 386.479Z" fill="#FAB6AD"/>
<path d="M164.779 228.572C139.962 231.121 92.0526 261.172 99.9809 371.519C105.046 442.081 151.498 477.44 157.112 475.038C162.726 472.637 257.987 425.812 236.165 400.622C215.287 376.531 222.081 358.098 225.366 325.475C228.65 292.851 233.586 257.349 207.054 245.063C164.062 225.165 171.414 227.888 164.779 228.572Z" fill="#3F4D90"/>
<path d="M363.654 669.321H295.793C295.723 668.241 295.704 667.215 295.719 666.213H363.732C363.808 667.249 363.782 668.29 363.654 669.321Z" fill="#383C4D"/>
<path d="M302.709 637.739C302.95 645.44 295.797 650.317 295.797 666.228H363.654C363.654 666.228 364.639 652.881 351.07 649.804C337.5 646.727 325.161 642.616 323.926 637.759L302.709 637.739Z" fill="#1E1E1E"/>
<path d="M229.733 395.951C229.733 395.951 333.304 389.214 358.472 420.007C383.64 450.8 334.784 571.972 329.848 638.699C329.848 638.699 305.066 641.264 295.003 638.699C284.939 636.135 276.181 506.834 301.532 475.528C301.532 475.528 209.034 498.589 171.457 469.502C133.88 440.414 214.094 396.495 229.733 395.951Z" fill="#383C4D"/>
<path d="M517 562.472L463.173 605.442C462.394 604.475 461.724 603.527 461.104 602.606L514.721 559.814C515.579 560.611 516.344 561.502 517 562.472Z" fill="#41465A"/>
<path d="M449.751 575.745C454.45 581.698 451.629 590.098 460.941 602.719L514.772 559.752C514.772 559.752 507.759 548.538 495.175 554.701C482.591 560.863 470.416 565.409 466.582 562.32L449.751 575.745Z" fill="#1E1E1E"/>
<path d="M154.229 472.594C155.787 481.287 240.03 506.236 333.795 444.646C333.795 444.646 348.342 525.885 443.097 579.778C443.097 579.778 463.96 570.531 469.632 558.081C469.632 558.081 402.789 472.874 378.988 403.824C368.991 374.861 243.252 390.014 224.871 395.951C206.489 401.889 147.309 433.863 154.229 472.594Z" fill="#41465A"/>
<path d="M157.56 256.805C179.257 263.993 209.793 328.024 209.793 328.024C209.793 328.024 243.969 331.292 295.692 352.891C295.692 352.891 296.884 364.117 290.07 373.314C290.07 373.314 233.189 380.666 203.603 377.646C193.598 376.617 155.686 348.334 134.842 309.194C116.204 274.185 131.055 248.027 157.56 256.805Z" fill="#49549A"/>
<path d="M295.291 353.249C295.291 353.249 309.706 345.657 316.458 347.176C323.21 348.695 331.344 354.768 332.19 356.455C333.035 358.141 338.957 366.409 338.957 368.263C338.957 370.116 319.82 369.429 317.14 369.429C314.459 369.429 296.752 369.712 293.335 369.005C289.918 368.298 295.291 353.249 295.291 353.249Z" fill="#FFCFC9"/>
<path d="M317.124 369.444C319.82 369.444 338.942 370.12 338.942 368.278C338.942 366.437 333.02 358.176 332.174 356.47C331.329 354.764 323.213 348.699 316.442 347.191C316.442 347.191 324.795 358.759 317.108 369.46" fill="#FAB6AD"/>
<path d="M186.024 193.598C186.456 196.955 178.949 213.842 165.554 226.971C153.8 238.484 204.358 247.394 205.683 247.103C207.008 246.811 212.91 229.081 214.122 224.928C215.333 220.774 186.024 193.598 186.024 193.598Z" fill="#FFCFC9"/>
<path d="M214.118 224.928C213.596 226.719 211.508 232.571 209.197 238.671C203.618 235.978 197.085 230.702 191.973 220.658C186.437 209.778 187.126 198.661 186.464 195.79C186.42 195.259 186.505 194.726 186.713 194.236C191.124 198.374 215.217 221.151 214.118 224.928Z" fill="#FAB6AD"/>
<path d="M229.651 176.238C231.759 184.611 233.613 198.65 230.746 205.465C227.879 212.28 222.818 224.803 220.835 225.46C218.852 226.117 197.038 223.265 191.973 213.803C186.908 204.342 186.682 196.443 186.024 193.598C185.365 190.754 197.26 167.666 212.462 168.105C227.664 168.544 229.04 173.809 229.651 176.238Z" fill="#FFCFC9"/>
<path d="M238.865 172.084C234.825 173.735 237.887 178.41 230.294 179.109C222.701 179.808 220.944 170.526 220.944 170.526C220.944 170.526 220.079 174.236 216.268 175.503C216.268 175.503 218.298 171.571 215.388 169.838C212.478 168.105 210.689 170.425 210.689 170.425C210.689 170.425 208.153 169.158 206.793 172.181C205.434 175.204 207.884 177.015 211.079 177.36C211.079 177.36 211.371 181.852 204.226 182.536C197.081 183.22 195.608 178.825 195.608 178.825C195.608 178.825 194.439 177.749 193.941 180.877C193.442 184.005 195.889 189.079 190.906 193.085C188.915 194.682 187.789 195.316 187.193 195.498C189.706 197.666 188.49 204.249 182.794 206.934C175.061 210.582 169.388 207.886 168.683 202.555C168.048 197.74 171.126 199.629 170.339 195.918C170.339 195.918 165.301 199.594 162.04 194.239C159.375 189.864 164.035 187.125 164.035 187.125C164.035 187.125 160.716 182.587 163.474 179.416C166.591 175.798 171.465 178.141 170.752 175.896C170.039 173.65 168.176 168.373 171.207 165.428C174.239 162.483 179.046 163.668 179.728 162.106C180.41 160.544 179.44 158.22 176.307 159.576C176.431 158.568 176.774 157.599 177.312 156.737C177.85 155.876 178.571 155.142 179.424 154.587C182.202 152.718 186.32 153.153 189.164 153.985C189.647 151.44 190.851 148.331 193.929 146.886C199.029 144.504 202.668 147.407 204.658 149.886C204.952 149.018 205.49 148.254 206.209 147.686C206.928 147.117 207.797 146.768 208.71 146.68C214.78 145.802 219.775 147.375 220.944 152.256C222.179 157.396 231.194 145.545 235.437 155.675C236.306 157.746 234.038 159.382 236.606 161.049C238.059 161.993 239.925 158.912 238.472 157.832C240.283 158.579 241.793 159.908 242.761 161.608C243.54 162.976 245.375 169.43 238.865 172.084Z" fill="#A59B85"/>
<path d="M78.3504 402.794H113.414C126.82 402.799 139.675 408.114 149.152 417.569C158.629 427.025 163.953 439.847 163.953 453.217V488.187" stroke="#D8BAA3" stroke-width="6" stroke-miterlimit="10" stroke-linecap="round"/>
<path d="M468.592 381.101H267.664C266.166 381.101 264.729 381.694 263.67 382.751C262.61 383.808 262.015 385.241 262.015 386.735C262.015 388.229 262.61 389.662 263.67 390.719C264.729 391.775 266.166 392.369 267.664 392.369H468.592V381.101Z" fill="white"/>
<path d="M468.592 381.101H267.664C266.166 381.101 264.729 381.694 263.67 382.751C262.61 383.808 262.015 385.241 262.015 386.735V386.735C262.015 388.229 262.61 389.662 263.67 390.719C264.729 391.775 266.166 392.369 267.664 392.369H468.592" stroke="#D8BAA3" stroke-width="6" stroke-miterlimit="10"/>
<path d="M381.599 669.446L414.037 398.407C415.065 392.629 423.309 392.447 424.591 398.174L465 667.927" stroke="#D8BAA3" stroke-width="6" stroke-miterlimit="10" stroke-linecap="round"/>
<path d="M447.055 370.672H292.494C290.389 370.672 288.683 372.373 288.683 374.472V376.803C288.683 378.902 290.389 380.603 292.494 380.603H447.055C449.16 380.603 450.866 378.902 450.866 376.803V374.472C450.866 372.373 449.16 370.672 447.055 370.672Z" fill="white" stroke="#D8BAA3" stroke-width="6" stroke-miterlimit="10"/>
<path d="M440.775 370.501H327.487C324.558 370.501 322.59 367.692 323.771 365.189L355.772 297.301C357.588 293.454 361.667 290.971 366.171 290.971H479.462C482.392 290.971 484.356 293.78 483.175 296.283L451.173 364.167C449.362 368.014 445.283 370.501 440.775 370.501Z" fill="white" stroke="#D8BAA3" stroke-width="6" stroke-miterlimit="10"/>
</g>
<defs>
<filter id="filter0_d" x="65" y="146" width="456" height="533" filterUnits="userSpaceOnUse" color-interpolation-filters="sRGB">
<feFlood flood-opacity="0" result="BackgroundImageFix"/>
<feColorMatrix in="SourceAlpha" type="matrix" values="0 0 0 0 0 0 0 0 0 0 0 0 0 0 0 0 0 0 127 0"/>
<feOffset dy="4"/>
<feGaussianBlur stdDeviation="2"/>
<feColorMatrix type="matrix" values="0 0 0 0 0 0 0 0 0 0 0 0 0 0 0 0 0 0 0.25 0"/>
<feBlend mode="normal" in2="BackgroundImageFix" result="effect1_dropShadow"/>
<feBlend mode="normal" in="SourceGraphic" in2="effect1_dropShadow" result="shape"/>
</filter>
<linearGradient id="paint0_linear" x1="423" y1="-17.5" x2="768.908" y2="341.645" gradientUnits="userSpaceOnUse">
<stop stop-color="#091595" stop-opacity="0.25"/>
<stop offset="1" stop-color="white" stop-opacity="0"/>
</linearGradient>
<linearGradient id="paint1_linear" x1="496" y1="164.5" x2="385.755" y2="679.567" gradientUnits="userSpaceOnUse">
<stop stop-color="#091595" stop-opacity="0.25"/>
<stop offset="1" stop-color="white" stop-opacity="0"/>
</linearGradient>
<clipPath id="clip0">
<rect width="448" height="525" fill="white" transform="translate(69 146)"/>
</clipPath>
</defs>
</svg>
